<?xml version="1.0" encoding="UTF-8"?>
<svg version="1.1" xmlns="http://www.w3.org/2000/svg" width="500" height="500">
<path d="M0 0 C3.97416883 1.24382279 7.59462576 2.69524657 11.2800293 4.62963867 C12.2851506 5.15325485 13.29027191 5.67687103 14.32585144 6.21635437 C15.39781265 6.77788712 16.46977386 7.33941986 17.57421875 7.91796875 C19.87365756 9.10225487 22.17381075 10.28515475 24.47460938 11.46679688 C28.08491169 13.32273833 31.69085375 15.18594305 35.28295898 17.0769043 C38.76127732 18.90692381 42.2608232 20.69400063 45.76171875 22.48046875 C46.82355881 23.04807419 47.88539886 23.61567963 48.97941589 24.20048523 C56.18556832 27.82981042 61.11977912 28.65602886 69 27 C69.96575455 26.8096669 70.93150909 26.6193338 71.92652893 26.42323303 C75.06869914 25.76176429 78.18691842 25.02940024 81.30859375 24.27734375 C82.43773697 24.01240616 83.56688019 23.74746857 84.73023987 23.47450256 C88.30103116 22.63587544 91.86939676 21.78748497 95.4375 20.9375 C99.03083396 20.08503604 102.62464463 19.23478398 106.21974182 18.38978577 C108.44782994 17.8657761 110.67487915 17.33732454 112.90074158 16.80393982 C113.90601395 16.56691849 114.91128632 16.32989716 115.94702148 16.08569336 C116.8287352 15.87553085 117.71044891 15.66536835 118.61888123 15.44883728 C121 15 121 15 125 15 C124.31561784 18.2919056 123.11075542 21.02629026 121.60742188 24.02807617 C121.1102063 25.02558395 120.61299072 26.02309174 120.10070801 27.05082703 C119.56216187 28.1207338 119.02361572 29.19064056 118.46875 30.29296875 C117.9176355 31.39473953 117.366521 32.49651031 116.79870605 33.63166809 C115.33559915 36.55408871 113.86882723 39.47463317 112.40057373 42.39447021 C110.90492617 45.37228374 109.41595658 48.35342886 107.92578125 51.33398438 C106.79464871 53.59133522 105.66315085 55.84850306 104.53125 58.10546875 C103.72343079 59.71943794 103.72343079 59.71943794 102.89929199 61.36601257 C102.40207642 62.35406387 101.90486084 63.34211517 101.39257812 64.36010742 C100.95369263 65.23406662 100.51480713 66.10802582 100.06262207 67.00846863 C99 69 99 69 98 70 C95.35261911 70.09511266 92.73140999 70.12555635 90.08374023 70.11352539 C89.25454071 70.11367142 88.42534119 70.11381744 87.5710144 70.1139679 C84.81684802 70.11326851 82.06274839 70.10547493 79.30859375 70.09765625 C77.40430234 70.09579216 75.50001045 70.09436822 73.59571838 70.09336853 C68.57332037 70.08954263 63.55095108 70.07971173 58.52856445 70.06866455 C53.4077188 70.05845198 48.28686852 70.05387124 43.16601562 70.04882812 C33.11066443 70.03808953 23.0553346 70.02101224 13 70 C13.03004623 69.41815948 13.06009247 68.83631897 13.09104919 68.23684692 C13.29377472 61.13031493 12.09250237 54.81043575 10.41015625 47.9296875 C10.14617538 46.80861603 9.88219452 45.68754456 9.61021423 44.53250122 C8.7714252 40.97742485 7.91783045 37.42612937 7.0625 33.875 C6.21318279 30.31620899 5.36710176 26.75669839 4.52549744 23.19607544 C4.00299058 20.98888494 3.47570161 18.78281923 2.94288635 16.57809448 C1.62643262 11.0518979 0.57161671 5.65354732 0 0 Z " fill="#F7E49A" transform="translate(195,430)"/>
<path d="M0 0 C1.18682625 0.00539291 1.18682625 0.00539291 2.39762878 0.01089478 C3.22682831 0.01074875 4.05602783 0.01060272 4.91035461 0.01045227 C7.664521 0.01115166 10.41862063 0.01894523 13.17277527 0.02676392 C15.07706668 0.028628 16.98135857 0.03005195 18.88565063 0.03105164 C23.90804865 0.03487754 28.93041794 0.04470843 33.95280457 0.05575562 C39.07365022 0.06596819 44.1945005 0.07054892 49.31535339 0.07559204 C59.37070459 0.08633064 69.42603442 0.10340792 79.48136902 0.12442017 C79.29220413 0.98808197 79.10303925 1.85174377 78.90814209 2.74157715 C78.45357554 6.34472688 78.80551098 8.73570279 79.65299988 12.24990845 C79.93336594 13.43778961 80.21373199 14.62567078 80.50259399 15.84954834 C80.81398819 17.11845917 81.12538239 18.38737 81.44621277 19.69473267 C81.76265197 21.02152139 82.07794685 22.3485835 82.39215088 23.67590332 C83.21919814 27.15865534 84.05910151 30.63816763 84.90257263 34.11697388 C86.25206058 39.6907308 87.58348234 45.26880803 88.9118824 50.84762192 C89.37705739 52.79191515 89.84907879 54.73456624 90.32119751 56.67718506 C90.60471573 57.8587619 90.88823395 59.04033875 91.18034363 60.25772095 C91.43206833 61.29663483 91.68379303 62.33554871 91.94314575 63.40594482 C92.48136902 66.12442017 92.48136902 66.12442017 92.48136902 70.12442017 C87.33373271 68.84163964 83.49068425 66.30542347 79.12640381 63.42427063 C57.39146318 49.22691611 37.66100281 37.89917569 11.25570679 43.28637695 C-1.4171849 46.07368136 -13.89518972 49.99795314 -26.08518982 54.41123962 C-28.51863098 55.12442017 -28.51863098 55.12442017 -32.51863098 55.12442017 C-31.83424882 51.83251457 -30.6293864 49.09812991 -29.12605286 46.09634399 C-28.62883728 45.09883621 -28.1316217 44.10132843 -27.61933899 43.07359314 C-27.08079285 42.00368637 -26.5422467 40.9337796 -25.98738098 39.83145142 C-25.43626648 38.72968063 -24.88515198 37.62790985 -24.31733704 36.49275208 C-22.85423013 33.57033145 -21.38745821 30.64978699 -19.91920471 27.72994995 C-18.42355715 24.75213643 -16.93458756 21.77099131 -15.44441223 18.79043579 C-14.31327969 16.53308494 -13.18178183 14.27591711 -12.04988098 12.01895142 C-11.51133484 10.94297195 -10.9727887 9.86699249 -10.41792297 8.75840759 C-9.9207074 7.77035629 -9.42349182 6.78230499 -8.91120911 5.76431274 C-8.25288086 4.45337395 -8.25288086 4.45337395 -7.58125305 3.11595154 C-5.62266002 -0.55477917 -4.03553265 0.00774166 0 0 Z " fill="#F7E49A" transform="translate(212.5186309814453,-0.124420166015625)"/>
<path d="M0 0 C3.21065631 0.67491854 5.88324727 1.81766328 8.81274414 3.28491211 C10.23926048 3.99586281 10.23926048 3.99586281 11.69459534 4.72117615 C12.71448044 5.23471146 13.73436554 5.74824677 14.78515625 6.27734375 C16.36410927 7.06716393 16.36410927 7.06716393 17.97496033 7.87294006 C20.19918114 8.98656053 22.42242982 10.10212441 24.64477539 11.21948242 C28.05061084 12.93152357 31.45959961 14.63714937 34.86914062 16.34179688 C37.02883494 17.42410188 39.1883464 18.50677189 41.34765625 19.58984375 C42.36956558 20.10135483 43.39147491 20.61286591 44.4443512 21.13987732 C45.39220993 21.61699661 46.34006866 22.09411591 47.31665039 22.58569336 C48.56763268 23.21404335 48.56763268 23.21404335 49.84388733 23.85508728 C52 25 52 25 55 27 C55.28628303 29.7515767 55.37827044 32.27720631 55.34057617 35.02978516 C55.34123329 36.27380348 55.34123329 36.27380348 55.34190369 37.54295349 C55.33980898 40.29189368 55.31644613 43.0402285 55.29296875 45.7890625 C55.28737521 47.69192166 55.28310397 49.59478513 55.28010559 51.49765015 C55.26863772 56.51192095 55.2391539 61.52593207 55.20599365 66.5401001 C55.17533455 71.65430182 55.16160916 76.76854541 55.14648438 81.8828125 C55.11428601 91.92198925 55.06306628 101.96097305 55 112 C54.42994232 111.96741592 53.85988464 111.93483185 53.27255249 111.90126038 C45.81792667 111.66803397 39.1328158 113.05969277 31.9140625 114.80859375 C30.69472015 115.09477066 29.47537781 115.38094757 28.21908569 115.67579651 C25.00644048 116.43192425 21.79626853 117.19756104 18.58703613 117.96801758 C15.31648248 118.75060635 12.0428685 119.52016986 8.76953125 120.29101562 C-3.12968003 123.08584985 -3.12968003 123.08584985 -15 126 C-14.37367688 121.06595887 -12.25017026 117.10099398 -10.02734375 112.7265625 C-9.62600723 111.92576263 -9.22467072 111.12496277 -8.81117249 110.29989624 C-7.95903106 108.60232925 -7.10401519 106.90620256 -6.24633789 105.21142578 C-4.96092103 102.67128286 -3.6837332 100.12715064 -2.40820312 97.58203125 C1.7959783 89.21575619 6.04613127 80.88344709 10.57325745 72.68618774 C13.58733131 67.15359107 14.31111796 64.27618646 12.82836914 58.1015625 C12.54800308 56.91353027 12.26763702 55.72549805 11.97877502 54.50146484 C11.66738083 53.22223145 11.35598663 51.94299805 11.03515625 50.625 C10.71891433 49.29530529 10.40361523 47.96538602 10.08921814 46.63525391 C9.26019061 43.13653536 8.42096327 39.64035163 7.57879639 36.14477539 C6.23212921 30.55051073 4.89807773 24.95325704 3.56948662 19.35467529 C3.10399676 17.40160309 2.6321273 15.45005496 2.16017151 13.49853516 C1.87665329 12.31050293 1.59313507 11.1224707 1.30102539 9.8984375 C1.04930069 8.85349121 0.79757599 7.80854492 0.53822327 6.73193359 C0 4 0 4 0 0 Z " fill="#F7E499" transform="translate(445,180)"/>
<path d="M0 0 C-1.28278053 5.1476363 -3.8189967 8.99068477 -6.70014954 13.35496521 C-20.89750405 35.08990584 -32.22524448 54.82036621 -26.83804321 81.22566223 C-24.0507388 93.89855392 -20.12646703 106.37655874 -15.71318054 118.56655884 C-15 121 -15 121 -15 125 C-17.99956473 124.3521954 -20.52128276 123.36350023 -23.26196289 121.99047852 C-24.09284927 121.57657364 -24.92373566 121.16266876 -25.77980042 120.73622131 C-26.66844284 120.28830734 -27.55708527 119.84039337 -28.47265625 119.37890625 C-29.39211533 118.9189476 -30.3115744 118.45898895 -31.25889587 117.98509216 C-33.20064654 117.01270751 -35.14142564 116.03838063 -37.08129883 115.06225586 C-40.05256521 113.56749791 -43.02697963 112.07916064 -46.00195312 110.59179688 C-47.88821 109.64621059 -49.77428397 108.70025933 -51.66015625 107.75390625 C-52.99615623 107.08507164 -52.99615623 107.08507164 -54.35914612 106.40272522 C-55.18688034 105.98566818 -56.01461456 105.56861115 -56.86743164 105.13891602 C-57.59483047 104.7733107 -58.32222931 104.40770538 -59.07167053 104.03102112 C-61 103 -61 103 -64 101 C-64.28621686 98.18882089 -64.37819403 95.59884571 -64.34057617 92.78662109 C-64.34101425 91.9377684 -64.34145233 91.08891571 -64.34190369 90.21434021 C-64.33980882 87.40047432 -64.31644515 84.58719967 -64.29296875 81.7734375 C-64.28737527 79.82573777 -64.283104 77.87803382 -64.28010559 75.93032837 C-64.26863727 70.79769285 -64.23915304 65.665311 -64.20599365 60.53277588 C-64.17533553 55.29792716 -64.16160937 50.06303756 -64.14648438 44.828125 C-64.11428521 34.55197173 -64.06306492 24.27600694 -64 14 C-56.90179912 12.32683904 -49.8033881 10.65457183 -42.70483398 8.98291016 C-40.29267672 8.41475407 -37.88056668 7.84639742 -35.46850586 7.27783203 C-31.99084838 6.45812412 -28.51301869 5.63915033 -25.03515625 4.8203125 C-23.96604507 4.56814972 -22.8969339 4.31598694 -21.79542542 4.05618286 C-18.86458906 3.36654878 -15.93244776 2.68274337 -13 2 C-12.13946014 1.79550232 -11.27892029 1.59100464 -10.39230347 1.38031006 C-9.2070256 1.10480316 -9.2070256 1.10480316 -7.99780273 0.82373047 C-7.31749496 0.66355438 -6.63718719 0.5033783 -5.93626404 0.33834839 C-4 0 -4 0 0 0 Z " fill="#F7E499" transform="translate(64,195)"/>
<path d="M0 0 C0.66 0 1.32 0 2 0 C0.39309682 5.40746937 -1.98438897 10.27500671 -4.5 15.30078125 C-4.93634766 16.17776169 -5.37269531 17.05474213 -5.82226562 17.95829773 C-6.74145426 19.80239733 -7.66271893 21.64546344 -8.5859375 23.48754883 C-10.00218119 26.31685748 -11.40764278 29.15135176 -12.8125 31.98632812 C-13.70768517 33.77896965 -14.60349658 35.57129862 -15.5 37.36328125 C-15.92087891 38.21424881 -16.34175781 39.06521637 -16.77539062 39.94197083 C-17.16919922 40.72335922 -17.56300781 41.50474762 -17.96875 42.30981445 C-18.31357422 43.00009232 -18.65839844 43.69037018 -19.01367188 44.40156555 C-20 46 -20 46 -22 47 C-21.26086957 38.13043478 -21.26086957 38.13043478 -18 35 C-17.34 35 -16.68 35 -16 35 C-15.505 32.03 -15.505 32.03 -15 29 C-14.34 29 -13.68 29 -13 29 C-12.79029441 24.85906302 -12.79029441 24.85906302 -14 21 C-13.67 20.34 -13.34 19.68 -13 19 C-12.34 19 -11.68 19 -11 19 C-11 19.66 -11 20.32 -11 21 C-10.34 21 -9.68 21 -9 21 C-8.7525 20.175 -8.505 19.35 -8.25 18.5 C-7.0597736 15.16736608 -5.63348648 12.17239506 -4.01953125 9.03515625 C-2.5383976 6.0785638 -1.27161336 3.05187206 0 0 Z " fill="#F0E3A6" transform="translate(57,205)"/>
<path d="M0 0 C0.33 0 0.66 0 1 0 C2.00244655 4.34038029 2.9991923 8.68201867 3.99072266 13.02490234 C4.32868356 14.50149663 4.66818775 15.97773858 5.00927734 17.45361328 C5.49985381 19.57753764 5.98482932 21.70267562 6.46875 23.828125 C6.76201172 25.1059082 7.05527344 26.38369141 7.35742188 27.70019531 C8 31 8 31 8 35 C4.98782888 34.35550393 2.48344164 33.34977818 -0.25 31.9375 C-0.95640625 31.57527344 -1.6628125 31.21304687 -2.390625 30.83984375 C-2.92171875 30.56269531 -3.4528125 30.28554688 -4 30 C-4 29.67 -4 29.34 -4 29 C-2.35 29 -0.7 29 1 29 C1 29.66 1 30.32 1 31 C2.32 31.33 3.64 31.66 5 32 C4.42415568 29.61435923 3.77772405 27.33317216 3 25 C2.64453939 22.33404544 2.31249353 19.67084315 2 17 C1.80524104 12.67340259 1.80524104 12.67340259 0 9 C-0.07179964 7.48071962 -0.08392007 5.95832518 -0.0625 4.4375 C-0.05347656 3.61121094 -0.04445312 2.78492188 -0.03515625 1.93359375 C-0.02355469 1.29550781 -0.01195312 0.65742188 0 0 Z " fill="#F0E5AB" transform="translate(41,285)"/>
<path d="M0 0 C-0.68886787 3.38891322 -1.98716486 6.18011613 -3.5625 9.25 C-4.01753906 10.14203125 -4.47257812 11.0340625 -4.94140625 11.953125 C-5.29074219 12.62859375 -5.64007813 13.3040625 -6 14 C-7.45606519 9.47907032 -6.27032841 6.48351204 -5 2 C-5.5775 2.37125 -6.155 2.7425 -6.75 3.125 C-7.86375 3.558125 -7.86375 3.558125 -9 4 C-11.140625 3.0546875 -11.140625 3.0546875 -13 2 C-11.58461283 1.66127487 -10.16762037 1.32925376 -8.75 1 C-7.56664062 0.7215625 -7.56664062 0.7215625 -6.359375 0.4375 C-4 0 -4 0 0 0 Z " fill="#F1E5A8" transform="translate(320,445)"/>
<path d="M0 0 C3.36410994 0.68998581 6.14435115 1.95673576 9.203125 3.50390625 C10.1828125 3.99697266 11.1625 4.49003906 12.171875 4.99804688 C13.18765625 5.51431641 14.2034375 6.03058594 15.25 6.5625 C16.796875 7.34270508 16.796875 7.34270508 18.375 8.13867188 C20.91850444 9.42219958 23.4600653 10.70942659 26 12 C22.49242929 13.02160919 21.07627876 12.92042568 17.8125 11.1875 C17.11769531 10.83042969 16.42289062 10.47335938 15.70703125 10.10546875 C14 9 14 9 13 7 C10.68925595 6.25881795 8.35188447 5.59793673 6 5 C5.236875 4.79375 4.47375 4.5875 3.6875 4.375 C1.96271508 3.92768985 1.96271508 3.92768985 0 4 C0 2.68 0 1.36 0 0 Z " fill="#EEE3AC" transform="translate(445,180)"/>
<path d="M0 0 C5.45593671 1.60676453 10.3302147 4.05030894 15.375 6.625 C16.20644531 7.04523438 17.03789062 7.46546875 17.89453125 7.8984375 C19.93156359 8.92866075 21.96662189 9.96258821 24 11 C20.59068103 12.13643966 19.99664544 11.86747764 16.8125 10.5625 C16.09707031 10.27503906 15.38164062 9.98757813 14.64453125 9.69140625 C14.10183594 9.46324219 13.55914062 9.23507812 13 9 C13 8.34 13 7.68 13 7 C10.69 6.67 8.38 6.34 6 6 C5.67 5.01 5.34 4.02 5 3 C2.98491642 2.26676204 2.98491642 2.26676204 1 2 C0.67 2.99 0.34 3.98 0 5 C0 3.35 0 1.7 0 0 Z " fill="#EDE2A8" transform="translate(195,430)"/>
<path d="M0 0 C0.33 0 0.66 0 1 0 C0.125 6.875 0.125 6.875 -1 8 C-0.71395102 9.67542976 -0.38218767 11.34385343 0 13 C-0.99 13 -1.98 13 -3 13 C-4.1484375 11.296875 -4.1484375 11.296875 -5 9 C-4.1015625 6.640625 -4.1015625 6.640625 -2.625 4.25 C-2.14289063 3.45078125 -1.66078125 2.6515625 -1.1640625 1.828125 C-0.77992188 1.22484375 -0.39578125 0.6215625 0 0 Z " fill="#F5E7AD" transform="translate(453,258)"/>
<path d="M0 0 C1.125 3.75 1.125 3.75 0 6 C-0.66 6 -1.32 6 -2 6 C-2.33 7.98 -2.66 9.96 -3 12 C-3.99 12.33 -4.98 12.66 -6 13 C-4.58707905 8.1725201 -2.57025846 4.2837641 0 0 Z " fill="#EBE1A1" transform="translate(446,272)"/>
<path d="M0 0 C1.32 0.66 2.64 1.32 4 2 C-0.70973649 3.76615118 -5.03083364 4.48594831 -10 5 C-10 4.34 -10 3.68 -10 3 C-9.04287109 2.80083984 -9.04287109 2.80083984 -8.06640625 2.59765625 C-7.24011719 2.42105469 -6.41382813 2.24445312 -5.5625 2.0625 C-4.73878906 1.88847656 -3.91507813 1.71445312 -3.06640625 1.53515625 C-1.02338796 1.19247006 -1.02338796 1.19247006 0 0 Z " fill="#F1E5B3" transform="translate(190,50)"/>
<path d="M0 0 C4.455 1.98 4.455 1.98 9 4 C9 4.33 9 4.66 9 5 C6.36 5 3.72 5 1 5 C0.67 3.35 0.34 1.7 0 0 Z " fill="#F5EAA4" transform="translate(472,193)"/>
<path d="M0 0 C1.76462683 3.08809695 2 4.23312136 2 8 C-3.75 6.25 -3.75 6.25 -6 4 C-3.03 4.495 -3.03 4.495 0 5 C0 3.35 0 1.7 0 0 Z " fill="#EFE2AF" transform="translate(303,62)"/>
<path d="M0 0 C1.485 0.99 1.485 0.99 3 2 C3.29296875 4.1640625 3.29296875 4.1640625 3.1875 6.625 C3.16042969 7.44226563 3.13335937 8.25953125 3.10546875 9.1015625 C3.07066406 9.72804688 3.03585938 10.35453125 3 11 C1.0210244 7.36383344 0.4748935 4.11574371 0 0 Z " fill="#F1E8AC" transform="translate(199,449)"/>
<path d="M0 0 C1.26426661 3.79279982 0.40145184 5.34065352 -1 9 C-1.33 9.66 -1.66 10.32 -2 11 C-2.66 11 -3.32 11 -4 11 C-3.39301257 6.87248551 -1.96189209 3.6678852 0 0 Z " fill="#EDE4B8" transform="translate(434,295)"/>
<path d="M0 0 C1.98 0.66 3.96 1.32 6 2 C5.34 2.66 4.68 3.32 4 4 C0.875 3.625 0.875 3.625 -2 3 C-1.34 2.67 -0.68 2.34 0 2 C0 1.34 0 0.68 0 0 Z " fill="#F7EAB1" transform="translate(491,203)"/>
</svg>
